<svg width="145" height="49" viewBox="0 0 145 49" fill="none" xmlns="http://www.w3.org/2000/svg">
<path d="M133.093 0.00015752H11.5223C11.0791 0.00015752 10.6413 0.00015752 10.1993 0.00258091C9.82935 0.0050043 9.46233 0.0120443 9.08881 0.0179694C8.27734 0.027544 7.46779 0.0991243 6.66718 0.232088C5.86769 0.367947 5.09325 0.624079 4.37005 0.991821C3.64773 1.36267 2.98772 1.84456 2.41398 2.42C1.83722 2.99382 1.35645 3.65707 0.990149 4.38426C0.622839 5.11001 0.368145 5.88771 0.234864 6.69051C0.100315 7.49229 0.0279134 8.30332 0.0183081 9.11632C0.00709364 9.48783 0.00590936 9.86057 0 10.2321V38.2396C0.00590936 38.6158 0.00709364 38.9803 0.0183081 39.3566C0.0279164 40.1696 0.100318 40.9806 0.234864 41.7823C0.367777 42.5856 0.622486 43.3637 0.990149 44.0898C1.35628 44.8146 1.83712 45.4752 2.41398 46.0458C2.98555 46.6238 3.64598 47.106 4.37005 47.474C5.09325 47.8427 5.8676 48.1004 6.66718 48.2384C7.46793 48.3703 8.2774 48.4419 9.08881 48.4526C9.46233 48.4608 9.82935 48.4655 10.1993 48.4655C10.6413 48.468 11.0791 48.468 11.5223 48.468H133.093C133.527 48.468 133.969 48.468 134.403 48.4655C134.771 48.4655 135.149 48.4608 135.517 48.4526C136.327 48.4424 137.135 48.3708 137.934 48.2384C138.736 48.0994 139.513 47.8418 140.24 47.474C140.964 47.1058 141.623 46.6236 142.194 46.0458C142.77 45.4729 143.252 44.8128 143.622 44.0898C143.987 43.3632 144.24 42.5851 144.37 41.7823C144.505 40.9805 144.58 40.1697 144.595 39.3566C144.599 38.9803 144.599 38.6158 144.599 38.2396C144.609 37.7994 144.609 37.3616 144.609 36.9142V11.555C144.609 11.1113 144.609 10.6711 144.599 10.2321C144.599 9.86057 144.599 9.48783 144.595 9.11627C144.58 8.30321 144.505 7.49236 144.37 6.69046C144.239 5.88813 143.987 5.11049 143.622 4.38422C142.876 2.92664 141.694 1.74018 140.24 0.991712C139.513 0.624868 138.736 0.368804 137.934 0.231979C137.135 0.0984294 136.327 0.0268242 135.517 0.0177998C135.149 0.0118867 134.771 0.0047862 134.403 0.00242339C133.969 0 133.527 0 133.093 0V0.00015752Z" fill="#A6A6A6"/>
<path d="M10.2054 47.4079C9.8372 47.4079 9.47791 47.4032 9.1126 47.3949C8.35584 47.385 7.60085 47.319 6.85382 47.1973C6.15726 47.077 5.48247 46.8533 4.85173 46.5334C4.22676 46.2162 3.65674 45.8003 3.16351 45.3016C2.66314 44.8088 2.24655 44.2372 1.93027 43.6095C1.6105 42.9777 1.3892 42.3005 1.27408 41.6015C1.14975 40.8503 1.08249 40.0909 1.07287 39.3295C1.06521 39.074 1.05518 38.2231 1.05518 38.2231V10.2323C1.05518 10.2323 1.06586 9.3945 1.07293 9.14837C1.08214 8.38825 1.14902 7.62994 1.27296 6.87999C1.3883 6.17905 1.60977 5.49989 1.92971 4.86603C2.24484 4.23876 2.65911 3.66673 3.15647 3.17214C3.65327 2.67286 4.22511 2.2548 4.85113 1.93322C5.48043 1.61441 6.15394 1.39223 6.8491 1.27413C7.59858 1.15123 8.35619 1.08478 9.11557 1.07534L10.206 1.06055H134.397L135.501 1.07594C136.253 1.0849 137.004 1.15076 137.747 1.27294C138.449 1.39252 139.129 1.61625 139.766 1.93677C141.02 2.58484 142.04 3.61015 142.684 4.86899C142.999 5.49848 143.217 6.17209 143.331 6.86698C143.456 7.62308 143.527 8.38735 143.541 9.1537C143.545 9.49686 143.545 9.86545 143.545 10.2323C143.554 10.6867 143.554 11.1192 143.554 11.5552V36.9144C143.554 37.3546 143.554 37.7841 143.545 38.2172C143.545 38.6112 143.545 38.9722 143.54 39.3437C143.526 40.0964 143.457 40.847 143.333 41.5896C143.221 42.2937 143 42.9761 142.681 43.6131C142.362 44.234 141.948 44.8007 141.453 45.2922C140.96 45.7935 140.389 46.2119 139.762 46.5311C139.128 46.8534 138.448 47.078 137.747 47.1973C137 47.3196 136.245 47.3857 135.488 47.3949C135.134 47.4032 134.763 47.4079 134.403 47.4079L133.093 47.4103L10.2054 47.4079Z" fill="black"/>
<path d="M29.9312 24.5969C29.9442 23.5855 30.2121 22.5939 30.7101 21.7143C31.208 20.8347 31.9197 20.0956 32.779 19.5659C32.2331 18.7841 31.513 18.1408 30.6757 17.6869C29.8385 17.2331 28.9072 16.9813 27.9559 16.9514C25.9266 16.7378 23.9593 18.169 22.9252 18.169C21.8711 18.169 20.279 16.9726 18.5645 17.008C17.4555 17.0439 16.3747 17.3673 15.4275 17.9465C14.4802 18.5258 13.6987 19.3412 13.1592 20.3133C10.822 24.3706 12.5653 30.3334 14.8041 33.613C15.9242 35.2189 17.2333 37.0128 18.9462 36.9492C20.6225 36.8795 21.2485 35.8774 23.2718 35.8774C25.2763 35.8774 25.8637 36.9492 27.6114 36.9087C29.41 36.8794 30.5432 35.2957 31.6241 33.6745C32.4289 32.5303 33.0482 31.2656 33.459 29.9274C32.414 29.4842 31.5223 28.7424 30.895 27.7945C30.2676 26.8466 29.9325 25.7345 29.9312 24.5969Z" fill="white"/>
<path d="M26.6304 14.794C27.6111 13.6136 28.0942 12.0963 27.9772 10.5645C26.4789 10.7222 25.0949 11.4402 24.101 12.5754C23.615 13.1299 23.2428 13.7751 23.0057 14.474C22.7685 15.1728 22.671 15.9117 22.7189 16.6484C23.4683 16.6561 24.2097 16.4932 24.8872 16.172C25.5647 15.8508 26.1608 15.3797 26.6304 14.794Z" fill="white"/>
<path d="M51.1206 32.8861H45.4005L44.0268 36.9531H41.604L47.022 21.9062H49.5392L54.9572 36.9531H52.4931L51.1206 32.8861ZM45.9929 31.0094H50.527L48.2919 24.4089H48.2293L45.9929 31.0094Z" fill="white"/>
<path d="M66.6582 31.4678C66.6582 34.8769 64.8384 37.0672 62.0923 37.0672C61.3966 37.1037 60.7048 36.943 60.096 36.6035C59.4871 36.2641 58.986 35.7596 58.6498 35.1478H58.5978V40.5815H56.3521V25.982H58.5259V27.8067H58.5672C58.9188 27.1978 59.4285 26.696 60.0419 26.3545C60.6554 26.013 61.3497 25.8446 62.051 25.8673C64.8278 25.8673 66.6582 28.0682 66.6582 31.4678ZM64.3499 31.4678C64.3499 29.2468 63.2051 27.7866 61.4585 27.7866C59.7426 27.7866 58.5884 29.2775 58.5884 31.4678C58.5884 33.6782 59.7426 35.1585 61.4585 35.1585C63.2051 35.1585 64.3499 33.709 64.3499 31.4678Z" fill="white"/>
<path d="M78.6997 31.4678C78.6997 34.8769 76.8799 37.0672 74.1338 37.0672C73.4381 37.1036 72.7463 36.943 72.1375 36.6035C71.5286 36.2641 71.0275 35.7596 70.6913 35.1478H70.6394V40.5815H68.3936V25.982H70.5674V27.8067H70.6087C70.9603 27.1978 71.4699 26.696 72.0834 26.3545C72.6968 26.0129 73.3911 25.8446 74.0924 25.8673C76.8693 25.8673 78.6997 28.0682 78.6997 31.4678ZM76.3914 31.4678C76.3914 29.2468 75.2466 27.7866 73.5 27.7866C71.7841 27.7866 70.6299 29.2775 70.6299 31.4678C70.6299 33.6782 71.7841 35.1585 73.5 35.1585C75.2466 35.1585 76.3914 33.709 76.3914 31.4678H76.3914Z" fill="white"/>
<path d="M86.6588 32.7616C86.8252 34.2537 88.2709 35.2334 90.2464 35.2334C92.1394 35.2334 93.5012 34.2536 93.5012 32.9082C93.5012 31.7403 92.6798 31.041 90.735 30.5618L88.7901 30.092C86.0345 29.4246 84.7552 28.1324 84.7552 26.0356C84.7552 23.4395 87.0117 21.6562 90.2157 21.6562C93.3867 21.6562 95.5606 23.4395 95.6337 26.0356H93.3667C93.2309 24.534 91.993 23.6276 90.1838 23.6276C88.3747 23.6276 87.1367 24.5447 87.1367 25.8794C87.1367 26.9432 87.9274 27.5692 89.8617 28.0484L91.515 28.4554C94.594 29.1855 95.8733 30.4257 95.8733 32.6266C95.8733 35.4416 93.6369 37.2047 90.08 37.2047C86.752 37.2047 84.505 35.483 84.3599 32.7614L86.6588 32.7616Z" fill="white"/>
<path d="M100.72 23.3848V25.9809H102.801V27.7641H100.72V33.812C100.72 34.7515 101.137 35.1893 102.051 35.1893C102.298 35.185 102.545 35.1676 102.79 35.1372V36.9098C102.379 36.9868 101.961 37.0217 101.543 37.0139C99.3277 37.0139 98.4639 36.1797 98.4639 34.0521V27.7641H96.873V25.9809H98.4638V23.3848H100.72Z" fill="white"/>
<path d="M104.006 31.4664C104.006 28.0147 106.033 25.8457 109.195 25.8457C112.367 25.8457 114.385 28.0146 114.385 31.4664C114.385 34.9275 112.378 37.087 109.195 37.087C106.013 37.087 104.006 34.9275 104.006 31.4664ZM112.097 31.4664C112.097 29.0986 111.015 27.7011 109.195 27.7011C107.375 27.7011 106.294 29.1092 106.294 31.4664C106.294 33.8436 107.375 35.2304 109.195 35.2304C111.015 35.2304 112.097 33.8436 112.097 31.4664H112.097Z" fill="white"/>
<path d="M116.237 25.9819H118.379V27.8492H118.431C118.576 27.266 118.916 26.7506 119.396 26.3897C119.875 26.0287 120.463 25.8442 121.062 25.8671C121.321 25.8662 121.579 25.8944 121.832 25.9512V28.0574C121.505 27.9573 121.164 27.9114 120.823 27.9214C120.497 27.9081 120.171 27.9658 119.869 28.0904C119.567 28.2151 119.296 28.4038 119.074 28.6436C118.851 28.8834 118.683 29.1685 118.581 29.4796C118.479 29.7906 118.446 30.12 118.483 30.4453V36.9523H116.237L116.237 25.9819Z" fill="white"/>
<path d="M132.185 33.7288C131.883 35.7203 129.949 37.087 127.474 37.087C124.291 37.087 122.316 34.9488 122.316 31.5184C122.316 28.0774 124.302 25.8457 127.38 25.8457C130.407 25.8457 132.31 27.9307 132.31 31.2569V32.0284H124.583V32.1645C124.547 32.5682 124.598 32.975 124.731 33.3577C124.864 33.7404 125.077 34.0903 125.355 34.3842C125.634 34.6781 125.971 34.9092 126.345 35.0623C126.72 35.2153 127.122 35.2867 127.526 35.2718C128.057 35.3217 128.589 35.1984 129.045 34.9204C129.5 34.6424 129.854 34.2245 130.053 33.7288L132.185 33.7288ZM124.594 30.4546H130.063C130.084 30.0916 130.029 29.7283 129.902 29.3876C129.776 29.0469 129.58 28.736 129.328 28.4746C129.076 28.2131 128.773 28.0067 128.438 27.8683C128.103 27.7299 127.742 27.6625 127.38 27.6703C127.014 27.6682 126.652 27.7386 126.313 27.8776C125.975 28.0167 125.667 28.2215 125.408 28.4804C125.149 28.7393 124.944 29.047 124.804 29.3858C124.664 29.7247 124.593 30.0879 124.594 30.4547V30.4546Z" fill="white"/>
<path d="M45.7115 10.5805C46.1823 10.5466 46.6548 10.6179 47.0948 10.7893C47.5348 10.9607 47.9314 11.2278 48.256 11.5715C48.5805 11.9151 48.825 12.3268 48.9717 12.7766C49.1184 13.2265 49.1637 13.7034 49.1044 14.173C49.1044 16.4827 47.8593 17.8105 45.7115 17.8105H43.1069V10.5805H45.7115ZM44.2269 16.788H45.5864C45.9228 16.8082 46.2595 16.7528 46.5719 16.6261C46.8844 16.4993 47.1647 16.3043 47.3925 16.0552C47.6203 15.8061 47.7898 15.5093 47.8887 15.1862C47.9876 14.8631 48.0135 14.522 47.9643 14.1877C48.0099 13.8547 47.9815 13.5157 47.881 13.195C47.7806 12.8743 47.6106 12.5798 47.3834 12.3327C47.1561 12.0856 46.8771 11.892 46.5665 11.7657C46.2558 11.6394 45.9211 11.5836 45.5864 11.6022H44.2269V16.788Z" fill="white"/>
<path d="M50.3691 15.0771C50.3349 14.7185 50.3758 14.3567 50.4892 14.015C50.6026 13.6732 50.786 13.3589 51.0276 13.0924C51.2692 12.8258 51.5637 12.6129 51.8922 12.4671C52.2208 12.3214 52.576 12.2461 52.9353 12.2461C53.2945 12.2461 53.6498 12.3214 53.9783 12.4671C54.3068 12.6129 54.6013 12.8258 54.843 13.0924C55.0846 13.3589 55.268 13.6732 55.3814 14.015C55.4948 14.3567 55.5357 14.7185 55.5015 15.0771C55.5363 15.436 55.4959 15.7983 55.3828 16.1406C55.2697 16.4829 55.0864 16.7978 54.8447 17.0648C54.6031 17.3319 54.3083 17.5453 53.9795 17.6914C53.6506 17.8374 53.2949 17.9129 52.9353 17.9129C52.5756 17.9129 52.2199 17.8374 51.8911 17.6914C51.5622 17.5453 51.2675 17.3319 51.0258 17.0648C50.7841 16.7978 50.6008 16.4829 50.4877 16.1406C50.3746 15.7983 50.3342 15.436 50.3691 15.0771ZM54.3969 15.0771C54.3969 13.8944 53.867 13.2027 52.937 13.2027C52.0036 13.2027 51.4784 13.8944 51.4784 15.0771C51.4784 16.2693 52.0036 16.9556 52.937 16.9556C53.867 16.9556 54.3969 16.2645 54.3969 15.0771H54.3969Z" fill="white"/>
<path d="M62.3239 17.8097H61.2098L60.0852 13.7912H60.0002L58.8802 17.8097H57.7768L56.2769 12.3535H57.3661L58.3409 16.5169H58.4212L59.5399 12.3535H60.5702L61.689 16.5169H61.7739L62.744 12.3535H63.8179L62.3239 17.8097Z" fill="white"/>
<path d="M65.0796 12.3509H66.1134V13.2177H66.1936C66.3298 12.9064 66.5594 12.6454 66.8505 12.4712C67.1416 12.2969 67.4796 12.2181 67.8175 12.2456C68.0823 12.2256 68.3481 12.2657 68.5954 12.3627C68.8426 12.4598 69.0649 12.6114 69.2458 12.8063C69.4267 13.0012 69.5615 13.2344 69.6403 13.4886C69.7191 13.7428 69.7399 14.0116 69.701 14.275V17.807H68.6271V14.5454C68.6271 13.6685 68.2471 13.2325 67.4528 13.2325C67.2731 13.2241 67.0936 13.2548 66.9268 13.3224C66.76 13.3901 66.6097 13.4931 66.4863 13.6244C66.3629 13.7557 66.2692 13.9123 66.2118 14.0833C66.1543 14.2543 66.1345 14.4357 66.1535 14.6152V17.8071H65.0796L65.0796 12.3509Z" fill="white"/>
<path d="M71.4126 10.2227H72.4865V17.8088H71.4126V10.2227Z" fill="white"/>
<path d="M73.9784 15.0772C73.9442 14.7186 73.9852 14.3568 74.0986 14.015C74.212 13.6732 74.3954 13.359 74.6371 13.0924C74.8787 12.8258 75.1733 12.6129 75.5018 12.4671C75.8304 12.3214 76.1857 12.2461 76.5449 12.2461C76.9042 12.2461 77.2595 12.3214 77.588 12.4671C77.9166 12.6129 78.2111 12.8258 78.4527 13.0924C78.6944 13.359 78.8778 13.6732 78.9912 14.015C79.1047 14.3568 79.1456 14.7186 79.1114 15.0772C79.1462 15.4361 79.1058 15.7984 78.9926 16.1407C78.8795 16.4831 78.6962 16.7979 78.4545 17.0649C78.2128 17.332 77.918 17.5454 77.5891 17.6915C77.2603 17.8375 76.9046 17.913 76.5449 17.913C76.1852 17.913 75.8295 17.8375 75.5007 17.6915C75.1718 17.5454 74.8771 17.332 74.6354 17.0649C74.3936 16.7979 74.2103 16.4831 74.0972 16.1407C73.9841 15.7984 73.9436 15.4361 73.9784 15.0772ZM78.0062 15.0772C78.0062 13.8945 77.4763 13.2028 76.5464 13.2028C75.6129 13.2028 75.0878 13.8945 75.0878 15.0772C75.0878 16.2694 75.6129 16.9557 76.5464 16.9557C77.4763 16.9557 78.0062 16.2646 78.0062 15.0772H78.0062Z" fill="white"/>
<path d="M80.2422 16.2646C80.2422 15.2824 80.9715 14.7162 82.2661 14.6358L83.7401 14.5506V14.0796C83.7401 13.5033 83.3601 13.1779 82.6261 13.1779C82.0266 13.1779 81.6112 13.3986 81.4919 13.7844H80.4523C80.562 12.8472 81.4412 12.2461 82.6756 12.2461C84.0399 12.2461 84.8093 12.9271 84.8093 14.0796V17.8076H83.7755V17.0408H83.6905C83.5181 17.3159 83.2759 17.5401 82.9887 17.6906C82.7016 17.8411 82.3797 17.9125 82.0561 17.8975C81.8276 17.9213 81.5967 17.8969 81.3783 17.8257C81.1598 17.7546 80.9587 17.6384 80.7878 17.4845C80.6169 17.3307 80.4801 17.1426 80.3861 16.9325C80.2921 16.7224 80.2431 16.4948 80.2422 16.2646ZM83.7401 15.7983V15.3422L82.4113 15.4274C81.6619 15.4777 81.322 15.7333 81.322 16.2143C81.322 16.7053 81.7468 16.9911 82.3311 16.9911C82.5022 17.0085 82.6751 16.9911 82.8395 16.9401C83.0039 16.8891 83.1563 16.8055 83.2878 16.6942C83.4192 16.5829 83.527 16.4463 83.6047 16.2924C83.6824 16.1385 83.7285 15.9705 83.7401 15.7983Z" fill="white"/>
<path d="M86.2217 15.0783C86.2217 13.3543 87.1056 12.2621 88.4805 12.2621C88.8205 12.2464 89.1581 12.328 89.4536 12.4976C89.749 12.6671 89.9903 12.9174 90.1492 13.2193H90.2294V10.2227H91.3033V17.8088H90.2743V16.9467H90.1893C90.0182 17.2466 89.7685 17.4938 89.4673 17.6616C89.1661 17.8294 88.8248 17.9114 88.4805 17.8987C87.0962 17.8987 86.2217 16.8065 86.2217 15.0783ZM87.331 15.0783C87.331 16.2356 87.8751 16.932 88.785 16.932C89.6901 16.932 90.2495 16.2256 90.2495 15.0831C90.2495 13.9459 89.6842 13.2294 88.785 13.2294C87.881 13.2294 87.331 13.9305 87.331 15.0783H87.331Z" fill="white"/>
<path d="M95.7455 15.0771C95.7113 14.7185 95.7522 14.3567 95.8656 14.015C95.979 13.6732 96.1624 13.3589 96.4041 13.0924C96.6457 12.8258 96.9402 12.6129 97.2687 12.4671C97.5972 12.3214 97.9525 12.2461 98.3117 12.2461C98.671 12.2461 99.0262 12.3214 99.3548 12.4671C99.6833 12.6129 99.9778 12.8258 100.219 13.0924C100.461 13.3589 100.644 13.6732 100.758 14.015C100.871 14.3567 100.912 14.7185 100.878 15.0771C100.913 15.436 100.872 15.7983 100.759 16.1406C100.646 16.4829 100.463 16.7978 100.221 17.0648C99.9795 17.3319 99.6848 17.5453 99.3559 17.6914C99.0271 17.8374 98.6714 17.9129 98.3117 17.9129C97.9521 17.9129 97.5964 17.8374 97.2675 17.6914C96.9387 17.5453 96.6439 17.3319 96.4023 17.0648C96.1606 16.7978 95.9773 16.4829 95.8642 16.1406C95.7511 15.7983 95.7107 15.436 95.7455 15.0771ZM99.7733 15.0771C99.7733 13.8944 99.2434 13.2027 98.3135 13.2027C97.38 13.2027 96.8549 13.8944 96.8549 15.0771C96.8549 16.2693 97.3801 16.9556 98.3135 16.9556C99.2435 16.9556 99.7733 16.2645 99.7733 15.0771Z" fill="white"/>
<path d="M102.319 12.3509H103.353V13.2177H103.433C103.57 12.9064 103.799 12.6454 104.09 12.4712C104.381 12.2969 104.719 12.2181 105.057 12.2456C105.322 12.2256 105.588 12.2657 105.835 12.3627C106.082 12.4598 106.305 12.6114 106.486 12.8063C106.666 13.0012 106.801 13.2344 106.88 13.4886C106.959 13.7428 106.98 14.0116 106.941 14.275V17.807H105.867V14.5454C105.867 13.6685 105.487 13.2325 104.693 13.2325C104.513 13.2241 104.333 13.2548 104.167 13.3224C104 13.3901 103.849 13.4931 103.726 13.6244C103.603 13.7557 103.509 13.9123 103.452 14.0833C103.394 14.2543 103.374 14.4357 103.393 14.6152V17.8071H102.319V12.3509Z" fill="white"/>
<path d="M113.009 10.9922V12.3755H114.188V13.2825H113.009V16.0881C113.009 16.6596 113.244 16.9099 113.779 16.9099C113.916 16.9094 114.052 16.9011 114.188 16.885V17.7819C113.995 17.8165 113.8 17.8349 113.604 17.837C112.41 17.837 111.934 17.4157 111.934 16.3638V13.2824H111.07V12.3754H111.934V10.9922H113.009Z" fill="white"/>
<path d="M115.655 10.2227H116.719V13.2294H116.804C116.947 12.9152 117.183 12.6528 117.48 12.4779C117.777 12.3029 118.12 12.2241 118.463 12.252C118.727 12.2376 118.99 12.2817 119.235 12.3811C119.479 12.4806 119.699 12.6328 119.878 12.8271C120.057 13.0214 120.191 13.2529 120.27 13.5051C120.35 13.7573 120.373 14.024 120.337 14.2861V17.8088H119.263V14.5517C119.263 13.6802 118.858 13.2389 118.099 13.2389C117.914 13.2237 117.729 13.2491 117.555 13.3134C117.381 13.3777 117.224 13.4793 117.093 13.611C116.963 13.7428 116.862 13.9015 116.799 14.0762C116.736 14.2508 116.712 14.4372 116.729 14.6221V17.8088H115.655L115.655 10.2227Z" fill="white"/>
<path d="M126.6 16.3345C126.454 16.8331 126.138 17.2645 125.707 17.553C125.276 17.8416 124.757 17.969 124.242 17.913C123.883 17.9225 123.527 17.8536 123.198 17.7112C122.869 17.5688 122.574 17.3562 122.335 17.0883C122.096 16.8203 121.918 16.5034 121.813 16.1595C121.708 15.8156 121.679 15.453 121.728 15.0967C121.681 14.7394 121.71 14.376 121.814 14.0311C121.919 13.6861 122.096 13.3677 122.334 13.0974C122.572 12.8271 122.865 12.6113 123.193 12.4644C123.522 12.3175 123.878 12.2431 124.237 12.2462C125.751 12.2462 126.665 13.2834 126.665 14.9967V15.3725H122.822V15.4328C122.805 15.633 122.831 15.8346 122.896 16.0245C122.961 16.2144 123.066 16.3886 123.202 16.5357C123.339 16.6829 123.504 16.7999 123.688 16.8791C123.872 16.9583 124.071 16.9981 124.271 16.9959C124.528 17.0268 124.789 16.9804 125.019 16.8627C125.25 16.7449 125.44 16.561 125.566 16.3344L126.6 16.3345ZM122.822 14.5761H125.571C125.584 14.393 125.559 14.209 125.498 14.0361C125.436 13.8632 125.339 13.7051 125.213 13.572C125.087 13.4388 124.935 13.3337 124.765 13.2632C124.596 13.1927 124.414 13.1584 124.231 13.1627C124.046 13.1603 123.861 13.1953 123.689 13.2655C123.517 13.3357 123.361 13.4397 123.23 13.5715C123.098 13.7032 122.995 13.8599 122.925 14.0325C122.855 14.205 122.82 14.3899 122.822 14.5761H122.822Z" fill="white"/>
</svg>
