<svg width="145" height="49" viewBox="0 0 164 49" fill="none" xmlns="http://www.w3.org/2000/svg">
<path d="M157.938 0H6.38393C3.0359 0 0.321777 2.71247 0.321777 6.05848V42.4093C0.321777 45.7553 3.0359 48.4678 6.38393 48.4678H157.938C161.286 48.4678 164 45.7553 164 42.4093V6.05848C164 2.71247 161.286 0 157.938 0Z" fill="black"/>
<path d="M157.938 0.969356C159.288 0.969356 160.584 1.50553 161.539 2.45993C162.494 3.41432 163.03 4.70876 163.03 6.05848V42.4093C163.03 43.7591 162.494 45.0535 161.539 46.0079C160.584 46.9623 159.288 47.4985 157.938 47.4985H6.38393C5.0334 47.4985 3.73817 46.9623 2.7832 46.0079C1.82822 45.0535 1.29172 43.7591 1.29172 42.4093V6.05848C1.29172 4.70876 1.82822 3.41432 2.7832 2.45993C3.73817 1.50553 5.0334 0.969356 6.38393 0.969356H157.938ZM157.938 0H6.38393C4.77615 0 3.23422 0.638302 2.09734 1.77449C0.960467 2.91067 0.321777 4.45167 0.321777 6.05848L0.321777 42.4093C0.321777 44.0161 0.960467 45.5571 2.09734 46.6933C3.23422 47.8295 4.77615 48.4678 6.38393 48.4678H157.938C159.546 48.4678 161.088 47.8295 162.224 46.6933C163.361 45.5571 164 44.0161 164 42.4093V6.05848C164 4.45167 163.361 2.91067 162.224 1.77449C161.088 0.638302 159.546 0 157.938 0V0Z" fill="#A6A6A6"/>
<path d="M57.8152 12.4089C57.8358 12.8534 57.7658 13.2974 57.6095 13.7139C57.4532 14.1305 57.2138 14.511 56.9058 14.8323C56.562 15.1893 56.1468 15.4698 55.6872 15.6556C55.2276 15.8414 54.734 15.9284 54.2385 15.9107C53.4868 15.9049 52.7535 15.6774 52.1306 15.2568C51.5076 14.8363 51.0227 14.2414 50.7366 13.5466C50.4505 12.8519 50.3759 12.0882 50.5222 11.3512C50.6685 10.6143 51.0292 9.93691 51.559 9.40393C51.9072 9.04864 52.3247 8.76854 52.7856 8.58096C53.2465 8.39339 53.741 8.30232 54.2385 8.3134C54.7511 8.3117 55.2586 8.41478 55.7298 8.61633C56.1685 8.79318 56.5591 9.07139 56.8695 9.42816L56.2269 10.0704C55.9849 9.7827 55.6793 9.55522 55.3342 9.40591C54.9891 9.2566 54.614 9.18955 54.2385 9.21006C53.8691 9.20846 53.503 9.2796 53.1611 9.4194C52.8193 9.5592 52.5083 9.76493 52.246 10.0248C51.9836 10.2848 51.7751 10.5938 51.6323 10.9342C51.4894 11.2747 51.4151 11.6399 51.4135 12.0091C51.4135 12.0091 51.4135 12.0818 51.4135 12.1181C51.4056 12.6829 51.5652 13.2375 51.8722 13.7117C52.1793 14.186 52.62 14.5587 53.1387 14.783C53.6575 15.0072 54.2311 15.0729 54.7872 14.9717C55.3432 14.8705 55.8569 14.607 56.2632 14.2144C56.6363 13.8103 56.8515 13.2856 56.8695 12.7361H54.2385V11.8637H57.7667C57.799 12.0436 57.8152 12.2261 57.8152 12.4089Z" fill="white" stroke="white" stroke-width="0.215436" stroke-miterlimit="10"/>
<path d="M63.3685 9.37908H60.0949V11.6813H63.0775V12.5537H60.0949V14.8559H63.3685V15.7526H59.125V8.48242H63.3685V9.37908Z" fill="white" stroke="white" stroke-width="0.215436" stroke-miterlimit="10"/>
<path d="M67.3455 15.7526H66.4119V9.37908H64.375V8.48242H69.4308V9.37908H67.3455V15.7526Z" fill="white" stroke="white" stroke-width="0.215436" stroke-miterlimit="10"/>
<path d="M72.9946 15.7526V8.48242H73.9282V15.7526H72.9946Z" fill="white" stroke="white" stroke-width="0.215436" stroke-miterlimit="10"/>
<path d="M78.0749 15.7526H77.1414V9.37908H75.1045V8.48242H80.0997V9.37908H78.0749V15.7526Z" fill="white" stroke="white" stroke-width="0.215436" stroke-miterlimit="10"/>
<path d="M89.5696 14.8081C88.8608 15.5125 87.9018 15.9079 86.9022 15.9079C85.9026 15.9079 84.9437 15.5125 84.2349 14.8081C83.5459 14.0793 83.1621 13.1147 83.1621 12.1121C83.1621 11.1095 83.5459 10.1449 84.2349 9.41608C84.9395 8.71315 85.8945 8.31836 86.8901 8.31836C87.8857 8.31836 88.8406 8.71315 89.5453 9.41608C90.2402 10.1404 90.6303 11.1038 90.6348 12.1073C90.6393 13.1107 90.258 14.0776 89.5696 14.8081ZM84.9259 14.2023C85.4508 14.7247 86.1614 15.018 86.9022 15.018C87.643 15.018 88.3536 14.7247 88.8785 14.2023C89.3965 13.6316 89.6834 12.8887 89.6834 12.1182C89.6834 11.3477 89.3965 10.6047 88.8785 10.034C88.3536 9.51166 87.643 9.21837 86.9022 9.21837C86.1614 9.21837 85.4508 9.51166 84.9259 10.034C84.408 10.6047 84.121 11.3477 84.121 12.1182C84.121 12.8887 84.408 13.6316 84.9259 14.2023Z" fill="white" stroke="white" stroke-width="0.215436" stroke-miterlimit="10"/>
<path d="M91.9575 15.7526V8.48242H93.0972L96.6375 14.141V8.48242H97.5711V15.7526H96.6011L92.9032 9.8274V15.7526H91.9575Z" fill="white" stroke="white" stroke-width="0.215436" stroke-miterlimit="10"/>
<path d="M82.936 26.3549C81.9179 26.3597 80.9241 26.6658 80.0799 27.2346C79.2357 27.8033 78.5791 28.6093 78.1928 29.5507C77.8065 30.4921 77.7079 31.5267 77.9094 32.5241C78.111 33.5214 78.6037 34.4367 79.3252 35.1545C80.0468 35.8723 80.965 36.3603 81.9639 36.5571C82.9628 36.7538 83.9976 36.6504 84.9378 36.26C85.8779 35.8695 86.6812 35.2094 87.2464 34.3631C87.8115 33.5168 88.1131 32.5221 88.1131 31.5046C88.1227 30.8379 88.0009 30.1758 87.7544 29.5561C87.508 28.9365 87.1418 28.3714 86.6768 27.8932C86.2118 27.415 85.6571 27.033 85.0444 26.7691C84.4317 26.5051 83.7729 26.3644 83.1058 26.3549H82.936ZM82.936 34.6308C82.3186 34.6749 81.7019 34.5349 81.164 34.2286C80.6262 33.9222 80.1914 33.4632 79.9147 32.9098C79.6381 32.3563 79.5319 31.7333 79.6098 31.1195C79.6876 30.5058 79.9459 29.9289 80.352 29.4619C80.7581 28.9949 81.2937 28.6589 81.891 28.4963C82.4883 28.3337 83.1204 28.3519 83.7074 28.5486C84.2943 28.7452 84.8097 29.1115 85.1882 29.6011C85.5667 30.0906 85.7914 30.6814 85.8337 31.2986C85.8337 31.3713 85.8337 31.44 85.8337 31.5046C85.8533 31.8962 85.7954 32.2877 85.6634 32.6569C85.5313 33.026 85.3277 33.3655 85.0641 33.6559C84.8006 33.9463 84.4823 34.1819 84.1276 34.3492C83.7728 34.5165 83.3885 34.6122 82.9967 34.6308H82.936ZM71.6483 26.3549C70.6297 26.3573 69.6346 26.6614 68.7889 27.2287C67.9431 27.796 67.2845 28.6011 66.8964 29.5423C66.5082 30.4835 66.4079 31.5185 66.6081 32.5167C66.8083 33.5148 67.3 34.4313 68.0211 35.1503C68.7422 35.8693 69.6604 36.3585 70.6596 36.5563C71.6588 36.754 72.6943 36.6513 73.6351 36.2612C74.576 35.871 75.38 35.211 75.9457 34.3644C76.5114 33.5178 76.8133 32.5226 76.8133 31.5046C76.8328 30.1663 76.3228 28.8744 75.3941 27.91C74.4655 26.9456 73.1933 26.3867 71.8544 26.3549H71.6968H71.6483ZM71.6483 34.6308C71.0311 34.6771 70.4139 34.5394 69.8751 34.235C69.3362 33.9307 68.8998 33.4734 68.621 32.921C68.3423 32.3687 68.2339 31.7461 68.3093 31.1321C68.3848 30.5181 68.6409 29.9403 69.0451 29.4719C69.4493 29.0034 69.9836 28.6653 70.5801 28.5004C71.1767 28.3355 71.8089 28.3511 72.3965 28.5454C72.9842 28.7397 73.5009 29.1039 73.8814 29.5918C74.2619 30.0798 74.489 30.6695 74.5339 31.2865C74.5339 31.3592 74.5339 31.4319 74.5339 31.5046C74.5535 31.8962 74.4956 32.2877 74.3635 32.6569C74.2314 33.026 74.0278 33.3655 73.7643 33.6559C73.5007 33.9463 73.1825 34.1819 72.8277 34.3492C72.4729 34.5165 72.0886 34.6122 71.6968 34.6308H71.6362H71.6483ZM58.2024 27.9422V30.1233H63.4401C63.358 31.1506 62.9307 32.1199 62.2277 32.8738C61.7037 33.4073 61.0738 33.8252 60.3784 34.1006C59.6831 34.3761 58.9377 34.503 58.1903 34.4733C56.6468 34.4733 55.1666 33.8605 54.0752 32.7698C52.9838 31.679 52.3706 30.1997 52.3706 28.6571C52.3706 27.1146 52.9838 25.6353 54.0752 24.5445C55.1666 23.4538 56.6468 22.841 58.1903 22.841C59.6668 22.8169 61.0926 23.3791 62.155 24.4041L63.6948 22.8652C62.9776 22.1395 62.1219 21.5649 61.1785 21.1757C60.2351 20.7865 59.2231 20.5905 58.2024 20.5994C57.1477 20.5535 56.0943 20.7164 55.1027 21.0786C54.1111 21.4408 53.2009 21.9952 52.4244 22.7101C51.6479 23.4249 51.0203 24.286 50.5778 25.244C50.1353 26.2019 49.8865 27.2378 49.8458 28.2921C49.8051 29.3464 49.9732 30.3984 50.3405 31.3876C50.7078 32.3768 51.267 33.2837 51.9861 34.0562C52.7052 34.8288 53.5699 35.4517 54.5306 35.8892C55.4912 36.3268 56.529 36.5703 57.5841 36.6059H58.2024C59.1893 36.6625 60.1771 36.512 61.1023 36.1641C62.0275 35.8161 62.8695 35.2785 63.5742 34.5856C64.2788 33.8928 64.8305 33.0602 65.1938 32.1414C65.557 31.2226 65.7237 30.238 65.6831 29.2509C65.6871 28.7916 65.6465 28.3331 65.5619 27.8817L58.2024 27.9422ZM113.138 29.6386C112.788 28.5538 112.059 27.631 111.084 27.0386C110.11 26.4463 108.955 26.2238 107.83 26.4119C106.705 26.6 105.686 27.1861 104.957 28.0632C104.229 28.9403 103.84 30.05 103.863 31.1896C103.863 31.2946 103.863 31.3996 103.863 31.5046C103.848 32.1666 103.964 32.825 104.204 33.4421C104.445 34.0592 104.804 34.623 105.262 35.1012C105.721 35.5794 106.269 35.9627 106.875 36.2292C107.482 36.4957 108.135 36.6402 108.797 36.6543H108.979C109.827 36.6589 110.663 36.4532 111.412 36.0557C112.161 35.6581 112.8 35.0811 113.271 34.3763L111.513 33.1647C111.251 33.6018 110.879 33.9634 110.435 34.214C109.991 34.4647 109.489 34.5957 108.979 34.5944C108.454 34.6145 107.935 34.4761 107.489 34.1973C107.044 33.9185 106.693 33.5123 106.481 33.0314L113.38 30.1839L113.138 29.6386ZM106.106 31.3592C106.081 30.9893 106.129 30.6181 106.248 30.2668C106.367 29.9156 106.554 29.5912 106.798 29.3121C107.043 29.0331 107.34 28.8048 107.672 28.6405C108.005 28.4761 108.366 28.3789 108.737 28.3542C109.128 28.3285 109.518 28.4181 109.858 28.612C110.199 28.8058 110.475 29.0954 110.652 29.4447L106.106 31.3592ZM100.504 36.3514H102.771V21.2052H100.504V36.3514ZM96.7941 27.506H96.7093C96.3675 27.1242 95.949 26.8189 95.4809 26.6101C95.0129 26.4013 94.506 26.2937 93.9934 26.2943C92.6684 26.3586 91.419 26.9298 90.504 27.8896C89.589 28.8495 89.0786 30.1244 89.0786 31.4501C89.0786 32.7758 89.589 34.0507 90.504 35.0106C91.419 35.9704 92.6684 36.5417 93.9934 36.6059C94.5072 36.6145 95.0166 36.5105 95.4858 36.3011C95.9551 36.0918 96.3727 35.7822 96.7093 35.3942H96.782V36.1333C96.782 38.1084 95.7272 39.1625 94.0298 39.1625C93.4644 39.1493 92.9158 38.9683 92.4538 38.6424C91.9917 38.3166 91.6372 37.8608 91.4352 37.3329L89.4589 38.1568C89.8309 39.0612 90.4648 39.8339 91.2792 40.3758C92.0936 40.9176 93.0514 41.204 94.0298 41.1982C96.685 41.1982 98.8795 39.6351 98.8795 35.8304V26.6578H96.7941V27.506ZM94.1995 34.6308C93.4174 34.5619 92.6896 34.2028 92.1593 33.6241C91.6291 33.0454 91.335 32.2893 91.335 31.5046C91.335 30.72 91.6291 29.9638 92.1593 29.3852C92.6896 28.8065 93.4174 28.4473 94.1995 28.3785C94.9695 28.4192 95.6917 28.7636 96.2078 29.3361C96.7238 29.9086 96.9914 30.6624 96.9517 31.4319V31.5046C97.0155 32.2661 96.7743 33.0218 96.281 33.6057C95.7877 34.1896 95.0827 34.5539 94.3208 34.6187H94.1995V34.6308ZM123.759 21.2052H118.339V36.3514H120.606V30.608H123.771C124.417 30.6544 125.066 30.5672 125.677 30.352C126.288 30.1367 126.848 29.798 127.322 29.3569C127.796 28.9158 128.174 28.3818 128.433 27.7882C128.692 27.1945 128.825 26.554 128.825 25.9066C128.825 25.2592 128.692 24.6187 128.433 24.025C128.174 23.4314 127.796 22.8974 127.322 22.4563C126.848 22.0152 126.288 21.6765 125.677 21.4612C125.066 21.246 124.417 21.1588 123.771 21.2052H123.759ZM123.759 28.4754H120.594V23.3136H123.807C124.497 23.3136 125.158 23.5874 125.646 24.0748C126.134 24.5622 126.408 25.2233 126.408 25.9127C126.408 26.602 126.134 27.2631 125.646 27.7505C125.158 28.2379 124.497 28.5117 123.807 28.5117L123.759 28.4754ZM137.738 26.2943C136.911 26.2426 136.086 26.4342 135.366 26.8455C134.647 27.2568 134.063 27.8698 133.688 28.6087L135.701 29.4447C135.899 29.0792 136.2 28.7793 136.566 28.5813C136.932 28.3834 137.347 28.2961 137.762 28.33C138.047 28.2962 138.336 28.3189 138.612 28.3969C138.889 28.4749 139.147 28.6066 139.372 28.7844C139.597 28.9623 139.785 29.1828 139.925 29.4333C140.065 29.6838 140.154 29.9595 140.187 30.2445V30.4383C139.459 30.053 138.647 29.8532 137.823 29.8567C135.653 29.8567 133.458 31.0684 133.458 33.2616C133.502 34.1841 133.909 35.0519 134.59 35.676C135.272 36.3001 136.172 36.63 137.095 36.5938H137.192C137.763 36.6347 138.335 36.5213 138.847 36.2655C139.359 36.0097 139.792 35.6208 140.102 35.1397H140.175V36.3514H142.357V30.5232C142.357 27.8695 140.345 26.3307 137.762 26.3307L137.738 26.2943ZM137.459 34.5944C136.719 34.5944 135.689 34.2188 135.689 33.3101C135.689 32.0984 136.974 31.6985 138.114 31.6985C138.834 31.6807 139.546 31.8565 140.175 32.2074C140.099 32.8634 139.789 33.47 139.301 33.9153C138.813 34.3606 138.18 34.6147 137.52 34.6308L137.459 34.5944ZM150.347 26.6578L147.753 33.2252H147.68L144.988 26.6578H142.563L146.601 35.8425L144.297 40.9437H146.661L152.869 26.6578H150.347ZM129.966 36.3514H132.233V21.2052H129.966V36.3514Z" fill="white"/>
<path d="M12.98 9.1356C12.5936 9.61308 12.4029 10.2194 12.4466 10.832V37.6347C12.4097 38.2505 12.6091 38.8571 13.0043 39.3311L13.0892 39.4159L28.0869 24.4151V24.0637L13.0649 9.05078L12.98 9.1356Z" fill="url(#paint0_linear)"/>
<path d="M33.0574 29.4209L28.0864 24.4166V24.0652L33.0574 19.0488H33.1665L39.1195 22.49C40.8169 23.4473 40.8169 25.0225 39.1195 25.9918L33.1908 29.3604L33.0574 29.4209Z" fill="url(#paint1_linear)"/>
<path d="M33.2028 29.3477L28.0864 24.2344L12.9795 39.3321C13.3255 39.6361 13.7668 39.8097 14.2273 39.823C14.6878 39.8362 15.1384 39.6883 15.5014 39.4048L33.215 29.3477" fill="url(#paint2_linear)"/>
<path d="M33.2032 19.1206L15.4896 9.0635C15.1267 8.77998 14.676 8.63208 14.2156 8.64535C13.7551 8.65863 13.3138 8.83225 12.9678 9.1362L28.0868 24.2339L33.2032 19.1206Z" fill="url(#paint3_linear)"/>
<path opacity="0.2" d="M33.0574 29.2383L15.4892 39.2348C15.1392 39.4963 14.7139 39.6377 14.2768 39.6377C13.8397 39.6377 13.4144 39.4963 13.0644 39.2348L12.9795 39.3196L13.0644 39.4044C13.4136 39.6678 13.8392 39.8103 14.2768 39.8103C14.7143 39.8103 15.14 39.6678 15.4892 39.4044L33.2028 29.3473L33.0574 29.2383Z" fill="black"/>
<path opacity="0.12" d="M39.1198 25.8096L33.0576 29.2387L33.1667 29.3477L39.1198 25.9792C39.4576 25.8206 39.7475 25.5758 39.9604 25.2695C40.1733 24.9631 40.3015 24.6061 40.3322 24.2344C40.264 24.5721 40.1193 24.8897 39.9091 25.1627C39.6989 25.4358 39.4289 25.6571 39.1198 25.8096Z" fill="black"/>
<path opacity="0.25" d="M15.4895 9.23248L39.1198 22.6581C39.4289 22.8105 39.6989 23.0318 39.9091 23.3049C40.1193 23.578 40.264 23.8956 40.3322 24.2333C40.3015 23.8616 40.1733 23.5045 39.9604 23.1982C39.7475 22.8918 39.4576 22.647 39.1198 22.4884L15.4895 9.06284C13.7921 8.1056 12.4463 8.90532 12.4463 10.844V11.0258C12.4463 9.07496 13.8042 8.27524 15.4895 9.23248Z" fill="white"/>
<defs>
<linearGradient id="paint0_linear" x1="26.7533" y1="10.5533" x2="6.42101" y2="30.8979" gradientUnits="userSpaceOnUse">
<stop stop-color="#00A0FF"/>
<stop offset="0.01" stop-color="#00A1FF"/>
<stop offset="0.26" stop-color="#00BEFF"/>
<stop offset="0.51" stop-color="#00D2FF"/>
<stop offset="0.76" stop-color="#00DFFF"/>
<stop offset="1" stop-color="#00E3FF"/>
</linearGradient>
<linearGradient id="paint1_linear" x1="41.3383" y1="24.2349" x2="12.0096" y2="24.2349" gradientUnits="userSpaceOnUse">
<stop stop-color="#FFE000"/>
<stop offset="0.41" stop-color="#FFBD00"/>
<stop offset="0.78" stop-color="#FFA500"/>
<stop offset="1" stop-color="#FF9C00"/>
</linearGradient>
<linearGradient id="paint2_linear" x1="30.4264" y1="27.0213" x2="2.84817" y2="54.6041" gradientUnits="userSpaceOnUse">
<stop stop-color="#FF3A44"/>
<stop offset="1" stop-color="#C31162"/>
</linearGradient>
<linearGradient id="paint3_linear" x1="9.17286" y1="0.218123" x2="21.4837" y2="12.5364" gradientUnits="userSpaceOnUse">
<stop stop-color="#32A071"/>
<stop offset="0.07" stop-color="#2DA771"/>
<stop offset="0.48" stop-color="#15CF74"/>
<stop offset="0.8" stop-color="#06E775"/>
<stop offset="1" stop-color="#00F076"/>
</linearGradient>
</defs>
</svg>
