<svg xmlns="http://www.w3.org/2000/svg" width="150" height="70" viewBox="0 0 255.512 130.113"><path d="M113.705,95.6a6.588,6.588,0,1,1-6.588,6.588,6.589,6.589,0,0,1,6.588-6.588" transform="translate(135.218 -53.474)"/><path d="M73.336,106.974A131.177,131.177,0,0,0,156.212,163.4a128.756,128.756,0,0,0,26.126,2.659,130.681,130.681,0,0,0,109.513-59.074,5.245,5.245,0,0,0-8.774-5.748,120.2,120.2,0,0,1-100.74,54.343,118.831,118.831,0,0,1-24-2.451,120.665,120.665,0,0,1-76.218-51.9,5.248,5.248,0,0,0-8.78,5.748Z" transform="translate(-48.771 -35.948)"/><path d="M118.029,131.034a16.1,16.1,0,0,0-2.344-.158H91.3l.752-.752,29.3-29.3.032-.025c2.2-2.2,3.241-4.775,1.844-7.833a6.7,6.7,0,0,0-6.652-4.011c-13.524-.006-27.055-.05-40.579.019-4.5.025-7.125,2.6-7.113,6.62.006,3.967,2.653,6.487,7.2,6.544.771.013,1.541,0,2.312.013h22.936l-.79.783-17.194,17.2-9.759,9.753v-.038c-.619.613-1.225,1.225-1.844,1.838-2.464,2.432-3.828,5.1-2.419,8.42,1.358,3.222,4.232,3.929,7.492,3.916,12.476-.057,24.951-.019,37.427-.025,1.049,0,2.1.057,3.152-.025a6.856,6.856,0,0,0,6.557-6.178,6.719,6.719,0,0,0-5.919-6.759" transform="translate(-68.753 -88.932)"/><path d="M152.727,114.907c-.013-.19,0-.379-.025-.575a24.765,24.765,0,0,0-.354-2.628,28.253,28.253,0,0,0-18.1-21.256,27,27,0,0,0-8.61-1.5c-.948-.006-1.889,0-2.83-.006a27.436,27.436,0,0,0-25.021,27.048v2.186c-.032,5.565,0,11.143,0,16.714,0,7.22-.038,14.44.013,21.654.032,4.428,2.325,7.012,6.127,7.119,3.961.114,6.544-2.5,6.639-7.068.12-5.673.019-11.351.063-17.024a27.212,27.212,0,0,0,15.6,4.321c.632-.025,1.263-.057,1.895-.133.221-.025.449-.057.663-.088.663-.095,1.314-.215,1.952-.354.505-.107,1-.221,1.491-.354l.569-.171a28.413,28.413,0,0,0,13.859-9.3c.19-.234.379-.467.556-.707.265-.347.512-.707.758-1.068.3-.448.6-.9.891-1.371.126-.221.259-.442.385-.663.341-.619.67-1.244.966-1.882l.183-.4c.316-.7.6-1.415.859-2.141l.12-.341c.234-.7.43-1.4.613-2.116.044-.177.095-.347.133-.524.139-.6.24-1.225.341-1.838.044-.291.1-.581.133-.878.063-.505.088-1.017.126-1.522.025-.385.057-.764.069-1.15,0-.663-.019-1.32-.057-1.977m-27.554,16.114h0a14.551,14.551,0,1,1,14.554-14.554,14.556,14.556,0,0,1-14.554,14.554" transform="translate(85.521 -88.894)"/><path d="M133.225,119.967c-.025-.587-.076-1.175-.107-1.762-.044-.827-.076-1.655-.152-2.476-.114-1.5-.272-3.007-.518-4.479a25.45,25.45,0,0,0-3.739-9.652,27.816,27.816,0,0,0-21.85-12.621,25.565,25.565,0,0,0-3.935.076A27.143,27.143,0,0,0,79.337,108.5c-.076.246-.152.493-.227.752-.126.449-.227.91-.335,1.364-.088.423-.183.84-.259,1.27-.088.512-.164,1.03-.221,1.548-.032.253-.063.505-.088.764a32.089,32.089,0,0,0-.177,3.74c.253,13.284,11.85,25.134,25.444,25.993.2.019.392,0,.6,0a30.384,30.384,0,0,0,3.051.095,25.326,25.326,0,0,0,13.417-4.314,6.054,6.054,0,0,0,5.868,4.251c3.79.063,6.607-2.824,6.765-7.176.051-1.352.051-2.7.051-4.055v-3.48q-.019-1.554-.019-3.108h.019Zm-27.6,11.067A14.551,14.551,0,1,1,120.168,116.3l.013.19a14.654,14.654,0,0,1-14.554,14.547" transform="translate(-19.442 -88.919)"/><path d="M142.855,114.332a24.741,24.741,0,0,0-.354-2.628,28.252,28.252,0,0,0-18.1-21.256,27.005,27.005,0,0,0-8.61-1.5c-.948-.006-1.889,0-2.836-.006a27.436,27.436,0,0,0-25.014,27.048v2.186c-.032,5.565,0,11.143,0,16.714,0,7.22-.044,14.44.013,21.654.032,4.428,2.325,7.012,6.127,7.119,3.961.114,6.544-2.5,6.639-7.068.12-5.673.019-11.351.063-17.024a27.211,27.211,0,0,0,15.6,4.321c.632-.025,1.263-.057,1.895-.133.221-.025.449-.057.663-.088.67-.095,1.314-.215,1.958-.354.505-.107,1-.221,1.5-.354l.562-.171a28.384,28.384,0,0,0,13.859-9.3c.189-.234.379-.467.556-.707.265-.347.512-.707.764-1.068.3-.448.6-.9.884-1.371.133-.221.259-.442.385-.663.347-.619.67-1.244.966-1.882l.19-.4q.474-1.052.853-2.141l.126-.341c.234-.7.43-1.4.606-2.116.044-.177.095-.347.139-.524.139-.6.24-1.225.335-1.838.044-.291.1-.581.139-.878.063-.505.088-1.017.12-1.522.025-.385.063-.764.069-1.15-.006-.663-.025-1.32-.069-1.977-.006-.19,0-.379-.019-.575m-27.528,16.689h0a14.551,14.551,0,1,1,14.554-14.554,14.547,14.547,0,0,1-14.554,14.554" transform="translate(33.155 -88.894)"/></svg>